<?xml version="1.0" standalone="no"?>
<!DOCTYPE svg PUBLIC "-//W3C//DTD SVG 20010904//EN"
 "http://www.w3.org/TR/2001/REC-SVG-20010904/DTD/svg10.dtd">
<svg version="1.0" xmlns="http://www.w3.org/2000/svg"
 width="436.000000pt" height="128.000000pt" viewBox="0 0 436.000000 128.000000"
 preserveAspectRatio="xMidYMid meet">
<metadata>
Created by potrace 1.14, written by Peter Selinger 2001-2017
</metadata>
<g transform="translate(0.000000,128.000000) scale(0.100000,-0.100000)"
fill="#000000" stroke="none">
<path d="M0 665 l0 -615 2150 0 2150 0 0 615 0 615 -2150 0 -2150 0 0 -615z
m4280 0 l0 -595 -2130 0 -2130 0 0 595 0 595 2130 0 2130 0 0 -595z"/>
<path d="M30 665 l0 -585 120 0 120 0 0 255 0 255 -30 0 -30 0 0 330 0 330
-90 0 -90 0 0 -585z m160 235 l0 -330 30 0 30 0 0 -235 0 -235 -100 0 -100 0
0 565 0 565 70 0 70 0 0 -330z"/>
<path d="M220 925 l0 -325 55 0 55 0 0 325 0 325 -55 0 -55 0 0 -325z m90 0
l0 -305 -35 0 -35 0 0 305 0 305 35 0 35 0 0 -305z"/>
<path d="M340 920 l0 -330 -30 0 -30 0 0 -255 0 -255 120 0 120 0 0 255 0 255
-30 0 -30 0 0 330 0 330 -60 0 -60 0 0 -330z m100 -20 l0 -330 30 0 30 0 0
-235 0 -235 -100 0 -100 0 0 235 0 235 30 0 30 0 0 330 0 330 40 0 40 0 0
-330z"/>
<path d="M470 925 l0 -325 55 0 55 0 0 325 0 325 -55 0 -55 0 0 -325z m90 0
l0 -305 -35 0 -35 0 0 305 0 305 35 0 35 0 0 -305z"/>
<path d="M590 920 l0 -330 -30 0 -30 0 0 -255 0 -255 120 0 120 0 0 585 0 585
-90 0 -90 0 0 -330z m160 -255 l0 -565 -100 0 -100 0 0 235 0 235 30 0 30 0 0
330 0 330 70 0 70 0 0 -565z"/>
<path d="M780 665 l0 -585 120 0 120 0 0 255 0 255 -30 0 -30 0 0 330 0 330
-90 0 -90 0 0 -585z m160 235 l0 -330 30 0 30 0 0 -235 0 -235 -100 0 -100 0
0 565 0 565 70 0 70 0 0 -330z"/>
<path d="M970 925 l0 -325 55 0 55 0 0 325 0 325 -55 0 -55 0 0 -325z m90 0
l0 -305 -35 0 -35 0 0 305 0 305 35 0 35 0 0 -305z"/>
<path d="M1090 920 l0 -330 -30 0 -30 0 0 -255 0 -255 120 0 120 0 0 255 0
255 -30 0 -30 0 0 330 0 330 -60 0 -60 0 0 -330z m100 -20 l0 -330 30 0 30 0
0 -235 0 -235 -100 0 -100 0 0 235 0 235 30 0 30 0 0 330 0 330 40 0 40 0 0
-330z"/>
<path d="M1220 925 l0 -325 55 0 55 0 0 325 0 325 -55 0 -55 0 0 -325z m90 0
l0 -305 -35 0 -35 0 0 305 0 305 35 0 35 0 0 -305z"/>
<path d="M1340 920 l0 -330 -30 0 -30 0 0 -255 0 -255 120 0 120 0 0 255 0
255 -30 0 -30 0 0 330 0 330 -60 0 -60 0 0 -330z m100 -20 l0 -330 30 0 30 0
0 -235 0 -235 -100 0 -100 0 0 235 0 235 30 0 30 0 0 330 0 330 40 0 40 0 0
-330z"/>
<path d="M1470 925 l0 -325 55 0 55 0 0 325 0 325 -55 0 -55 0 0 -325z m90 0
l0 -305 -35 0 -35 0 0 305 0 305 35 0 35 0 0 -305z"/>
<path d="M1590 920 l0 -330 -30 0 -30 0 0 -255 0 -255 120 0 120 0 0 585 0
585 -90 0 -90 0 0 -330z m160 -255 l0 -565 -100 0 -100 0 0 235 0 235 30 0 30
0 0 330 0 330 70 0 70 0 0 -565z"/>
<path d="M1780 665 l0 -585 120 0 120 0 0 255 0 255 -30 0 -30 0 0 330 0 330
-90 0 -90 0 0 -585z m160 235 l0 -330 30 0 30 0 0 -235 0 -235 -100 0 -100 0
0 565 0 565 70 0 70 0 0 -330z"/>
<path d="M1970 925 l0 -325 55 0 55 0 0 325 0 325 -55 0 -55 0 0 -325z m90 0
l0 -305 -35 0 -35 0 0 305 0 305 35 0 35 0 0 -305z"/>
<path d="M2090 920 l0 -330 -30 0 -30 0 0 -255 0 -255 120 0 120 0 0 255 0
255 -30 0 -30 0 0 330 0 330 -60 0 -60 0 0 -330z m100 -20 l0 -330 30 0 30 0
0 -235 0 -235 -100 0 -100 0 0 235 0 235 30 0 30 0 0 330 0 330 40 0 40 0 0
-330z"/>
<path d="M2220 925 l0 -325 55 0 55 0 0 325 0 325 -55 0 -55 0 0 -325z m90 0
l0 -305 -35 0 -35 0 0 305 0 305 35 0 35 0 0 -305z"/>
<path d="M2340 920 l0 -330 -30 0 -30 0 0 -255 0 -255 120 0 120 0 0 585 0
585 -90 0 -90 0 0 -330z m160 -255 l0 -565 -100 0 -100 0 0 235 0 235 30 0 30
0 0 330 0 330 70 0 70 0 0 -565z"/>
<path d="M2530 665 l0 -585 120 0 120 0 0 255 0 255 -30 0 -30 0 0 330 0 330
-90 0 -90 0 0 -585z m160 235 l0 -330 30 0 30 0 0 -235 0 -235 -100 0 -100 0
0 565 0 565 70 0 70 0 0 -330z"/>
<path d="M2720 925 l0 -325 55 0 55 0 0 325 0 325 -55 0 -55 0 0 -325z m90 0
l0 -305 -35 0 -35 0 0 305 0 305 35 0 35 0 0 -305z"/>
<path d="M2840 920 l0 -330 -30 0 -30 0 0 -255 0 -255 120 0 120 0 0 255 0
255 -30 0 -30 0 0 330 0 330 -60 0 -60 0 0 -330z m100 -20 l0 -330 30 0 30 0
0 -235 0 -235 -100 0 -100 0 0 235 0 235 30 0 30 0 0 330 0 330 40 0 40 0 0
-330z"/>
<path d="M2970 925 l0 -325 55 0 55 0 0 325 0 325 -55 0 -55 0 0 -325z m90 0
l0 -305 -35 0 -35 0 0 305 0 305 35 0 35 0 0 -305z"/>
<path d="M3090 920 l0 -330 -30 0 -30 0 0 -255 0 -255 120 0 120 0 0 255 0
255 -30 0 -30 0 0 330 0 330 -60 0 -60 0 0 -330z m100 -20 l0 -330 30 0 30 0
0 -235 0 -235 -100 0 -100 0 0 235 0 235 30 0 30 0 0 330 0 330 40 0 40 0 0
-330z"/>
<path d="M3220 925 l0 -325 55 0 55 0 0 325 0 325 -55 0 -55 0 0 -325z m90 0
l0 -305 -35 0 -35 0 0 305 0 305 35 0 35 0 0 -305z"/>
<path d="M3340 920 l0 -330 -30 0 -30 0 0 -255 0 -255 120 0 120 0 0 585 0
585 -90 0 -90 0 0 -330z m160 -255 l0 -565 -100 0 -100 0 0 235 0 235 30 0 30
0 0 330 0 330 70 0 70 0 0 -565z"/>
<path d="M3530 665 l0 -585 120 0 120 0 0 255 0 255 -30 0 -30 0 0 330 0 330
-90 0 -90 0 0 -585z m160 235 l0 -330 30 0 30 0 0 -235 0 -235 -100 0 -100 0
0 565 0 565 70 0 70 0 0 -330z"/>
<path d="M3720 925 l0 -325 55 0 55 0 0 325 0 325 -55 0 -55 0 0 -325z m90 0
l0 -305 -35 0 -35 0 0 305 0 305 35 0 35 0 0 -305z"/>
<path d="M3840 920 l0 -330 -30 0 -30 0 0 -255 0 -255 120 0 120 0 0 255 0
255 -30 0 -30 0 0 330 0 330 -60 0 -60 0 0 -330z m100 -20 l0 -330 30 0 30 0
0 -235 0 -235 -100 0 -100 0 0 235 0 235 30 0 30 0 0 330 0 330 40 0 40 0 0
-330z"/>
<path d="M3970 925 l0 -325 55 0 55 0 0 325 0 325 -55 0 -55 0 0 -325z m90 0
l0 -305 -35 0 -35 0 0 305 0 305 35 0 35 0 0 -305z"/>
<path d="M4090 920 l0 -330 -30 0 -30 0 0 -255 0 -255 120 0 120 0 0 585 0
585 -90 0 -90 0 0 -330z m160 -255 l0 -565 -100 0 -100 0 0 235 0 235 30 0 30
0 0 330 0 330 70 0 70 0 0 -565z"/>
</g>
</svg>
